<svg xmlns="http://www.w3.org/2000/svg" viewBox="0 0 419 394" width="74" height="70">
	<defs>
		<clipPath clipPathUnits="userSpaceOnUse" id="cp1">
			<path d="M0 0L419 0L419 394L0 394Z" />
		</clipPath>
	</defs>
	<style>
		tspan { white-space:pre }
		.shp0 { fill: #dde1e0 } 
		.shp1 { fill: #343737 } 
		.shp2 { fill: #758281 } 
	</style>
	<g id="Page 1" clip-path="url(#cp1)">
		<path id="Path 1" class="shp0" d="M210.34 117.31L247.45 137.61L247.45 97.01L210.34 76.73L210.34 117.31Z" />
		<path id="Path 2" class="shp1" d="M210.34 117.31L173.22 137.61L173.22 97.01L210.34 76.73L210.34 117.31Z" />
		<path id="Path 3" class="shp2" d="M136.11 76.73L99 97.01L136.11 117.31L136.11 76.73ZM210.34 117.31L173.22 137.61L210.34 157.9L247.45 137.61L210.34 117.31Z" />
		<path id="Path 4" class="shp0" d="M136.11 36.13L136.11 76.73L173.22 56.44L136.11 36.13Z" />
		<path id="Path 5" class="shp1" d="M284.55 36.13L247.45 56.44L284.55 76.73L284.55 36.13Z" />
		<path id="Path 6" class="shp2" d="M284.55 36.13L247.45 15.84L210.34 36.13L173.22 15.84L136.1 36.13L173.22 56.44L136.1 76.73L173.22 97.01L210.34 76.73L247.45 97.01L284.55 76.73L247.45 56.44L284.55 36.13Z" />
		<path id="Path 7" class="shp0" d="M173.22 137.61L173.22 97.01L136.1 76.73L136.1 117.31L99 97.01L99 137.61L136.1 157.9L136.1 198.48L173.22 218.78L173.22 178.19L210.34 198.48L210.34 157.9L173.22 137.61Z" />
		<path id="Path 8" class="shp1" d="M210.34 198.48L173.22 178.19L173.22 218.78L210.34 198.48Z" />
		<path id="Path 9" class="shp2" d="M284.55 76.73L321.67 97.01L284.55 117.31L284.55 76.73Z" />
		<path id="Path 10" class="shp1" d="M284.55 117.31L284.55 76.73L247.45 97.01L247.45 137.61L210.34 157.9L210.34 198.48L247.45 178.19L247.45 218.78L284.55 198.48L284.55 157.9L321.67 137.61L321.67 97.01L284.55 117.31Z" />
		<path id="Path 11" class="shp0" d="M210.34 198.48L247.45 178.19L247.45 218.78L210.34 198.48Z" />
		<path id="Path 12" fill-rule="evenodd" class="shp1" d="M29.99 311.87L29.99 275.24L38.17 275.24L38.17 304.59L53.79 304.59L53.79 311.87L29.99 311.87ZM97.11 275.24L97.11 282.52L78.87 282.52L78.87 290.07L95.27 290.07L95.27 297.04L78.87 297.04L78.87 304.64L97.68 304.64L97.68 311.87L70.69 311.87L70.69 275.24L97.11 275.24ZM141.05 275.24L141.05 282.42L124.07 282.42L124.07 290.33L140.21 290.33L140.21 297.51L124.07 297.51L124.07 311.87L115.9 311.87L115.9 275.24L141.05 275.24ZM174.42 282.31L174.42 311.87L166.24 311.87L166.24 282.31L155.86 282.31L155.86 275.24L184.79 275.24L184.79 282.31L174.42 282.31ZM226.85 275.24L226.85 282.42L209.87 282.42L209.87 290.33L226.02 290.33L226.02 297.51L209.87 297.51L209.87 311.87L201.7 311.87L201.7 275.24L226.85 275.24ZM244.71 275.24L252.88 275.24L252.88 311.87L244.71 311.87L244.71 275.24ZM299.24 275.24L299.24 282.52L281 282.52L281 290.07L297.41 290.07L297.41 297.04L281 297.04L281 304.64L299.82 304.64L299.82 311.87L272.83 311.87L272.83 275.24L299.24 275.24ZM318.03 311.87L318.03 275.24L326.21 275.24L326.21 304.59L341.83 304.59L341.83 311.87L318.03 311.87ZM386.72 280.03C390.21 283.23 391.96 287.68 391.96 293.37C391.96 299.07 390.25 303.58 386.85 306.89C383.44 310.21 378.24 311.87 371.26 311.87L358.73 311.87L358.73 275.24L371.67 275.24C378.21 275.24 383.22 276.84 386.72 280.03ZM380.72 301.81C382.72 299.93 383.73 297.18 383.73 293.58C383.73 289.99 382.72 287.21 380.72 285.28C378.71 283.34 375.62 282.37 371.47 282.37L366.91 282.37L366.91 304.64L372.09 304.64C375.83 304.64 378.71 303.7 380.72 301.81Z" />
		<path id="Path 13" fill-rule="evenodd" class="shp2" d="M42.53 329.62L51.33 353.8L48.6 353.8L45.92 346.39L35.54 346.39L32.85 353.8L30.09 353.8L39 329.62L42.53 329.62ZM40.71 332L36.38 344.12L45.04 344.12L40.71 332ZM73.55 346.25C73.62 347.12 73.82 347.91 74.15 348.65C74.47 349.38 74.92 350.01 75.48 350.53C76.03 351.06 76.69 351.46 77.45 351.76C78.21 352.05 79.04 352.19 79.95 352.19C80.74 352.19 81.51 352.11 82.25 351.93C83 351.76 83.65 351.48 84.21 351.09C84.77 350.71 85.22 350.21 85.56 349.59C85.89 348.97 86.06 348.22 86.06 347.34C86.06 346.62 85.88 346 85.52 345.5C85.16 345 84.68 344.57 84.09 344.21C83.49 343.85 82.82 343.54 82.06 343.27C81.3 343 80.54 342.75 79.77 342.52C78.79 342.24 77.82 341.92 76.85 341.55C75.89 341.19 75.01 340.74 74.23 340.19C73.45 339.64 72.82 338.97 72.33 338.17C71.84 337.36 71.6 336.36 71.6 335.14C71.6 334.14 71.8 333.26 72.19 332.49C72.59 331.72 73.14 331.07 73.85 330.55C74.56 330.03 75.4 329.63 76.38 329.36C77.36 329.09 78.44 328.96 79.63 328.96C81.19 328.96 82.5 329.19 83.55 329.64C84.59 330.09 85.43 330.67 86.06 331.37C86.69 332.07 87.15 332.84 87.44 333.69C87.73 334.55 87.9 335.37 87.95 336.16L85.29 336.16C85.22 335.37 85.03 334.66 84.72 334.04C84.4 333.43 83.99 332.91 83.48 332.49C82.96 332.07 82.38 331.75 81.73 331.54C81.08 331.33 80.38 331.23 79.63 331.23C78.96 331.23 78.29 331.3 77.64 331.44C76.99 331.58 76.41 331.81 75.89 332.12C75.38 332.44 74.97 332.84 74.65 333.33C74.34 333.81 74.18 334.42 74.18 335.14C74.18 335.89 74.36 336.52 74.72 337.03C75.09 337.54 75.56 337.99 76.16 338.36C76.75 338.73 77.43 339.05 78.2 339.32C78.97 339.59 79.76 339.85 80.58 340.1C81.55 340.41 82.53 340.73 83.49 341.08C84.46 341.43 85.32 341.88 86.08 342.41C86.84 342.95 87.45 343.61 87.93 344.38C88.41 345.17 88.65 346.15 88.65 347.34C88.65 348.53 88.43 349.56 88 350.45C87.57 351.33 86.96 352.08 86.18 352.68C85.4 353.29 84.48 353.74 83.42 354.05C82.36 354.35 81.21 354.5 79.95 354.5C78.81 354.5 77.7 354.31 76.63 353.92C75.56 353.54 74.6 352.99 73.76 352.28C72.93 351.57 72.24 350.7 71.72 349.68C71.2 348.65 70.92 347.51 70.9 346.25L73.55 346.25ZM116.6 346.25C116.67 347.12 116.86 347.91 117.19 348.65C117.52 349.38 117.96 350.01 118.52 350.53C119.08 351.06 119.74 351.46 120.49 351.76C121.25 352.05 122.08 352.19 122.99 352.19C123.78 352.19 124.55 352.11 125.3 351.93C126.04 351.76 126.7 351.48 127.25 351.09C127.81 350.71 128.26 350.21 128.6 349.59C128.94 348.97 129.11 348.22 129.11 347.34C129.11 346.62 128.92 346 128.56 345.5C128.2 345 127.72 344.57 127.13 344.21C126.54 343.85 125.86 343.54 125.11 343.27C124.35 343 123.58 342.75 122.82 342.52C121.84 342.24 120.87 341.92 119.9 341.55C118.93 341.19 118.06 340.74 117.28 340.19C116.5 339.64 115.86 338.97 115.37 338.17C114.89 337.36 114.64 336.36 114.64 335.14C114.64 334.14 114.84 333.26 115.24 332.49C115.63 331.72 116.18 331.07 116.89 330.55C117.6 330.03 118.45 329.63 119.43 329.36C120.4 329.09 121.49 328.96 122.68 328.96C124.24 328.96 125.54 329.19 126.59 329.64C127.64 330.09 128.48 330.67 129.11 331.37C129.73 332.07 130.2 332.84 130.48 333.69C130.78 334.55 130.95 335.37 130.99 336.16L128.34 336.16C128.27 335.37 128.08 334.66 127.76 334.04C127.45 333.43 127.03 332.91 126.52 332.49C126.01 332.07 125.42 331.75 124.77 331.54C124.12 331.33 123.42 331.23 122.68 331.23C122 331.23 121.34 331.3 120.69 331.44C120.03 331.58 119.45 331.81 118.94 332.12C118.43 332.44 118.01 332.84 117.7 333.33C117.38 333.81 117.23 334.42 117.23 335.14C117.23 335.89 117.41 336.52 117.77 337.03C118.13 337.54 118.61 337.99 119.2 338.36C119.8 338.73 120.47 339.05 121.24 339.32C122.01 339.59 122.8 339.85 123.62 340.1C124.6 340.41 125.57 340.73 126.54 341.08C127.5 341.43 128.37 341.88 129.12 342.41C129.88 342.95 130.5 343.61 130.97 344.38C131.45 345.17 131.69 346.15 131.69 347.34C131.69 348.53 131.47 349.56 131.04 350.45C130.61 351.33 130.01 352.08 129.23 352.68C128.45 353.29 127.53 353.74 126.47 354.05C125.41 354.35 124.25 354.5 122.99 354.5C121.85 354.5 120.74 354.31 119.67 353.92C118.6 353.54 117.65 352.99 116.81 352.28C115.97 351.57 115.29 350.7 114.76 349.68C114.24 348.65 113.97 347.51 113.94 346.25L116.6 346.25ZM159.57 329.62L159.57 345.91C159.57 346.88 159.75 347.77 160.11 348.56C160.47 349.35 160.95 350.02 161.53 350.55C162.11 351.09 162.77 351.5 163.5 351.79C164.24 352.08 164.98 352.23 165.72 352.23C166.51 352.23 167.3 352.09 168.1 351.83C168.89 351.56 169.6 351.16 170.23 350.64C170.86 350.11 171.36 349.46 171.75 348.68C172.13 347.9 172.32 347 172.32 345.98L172.32 329.62L174.91 329.62L174.91 345.8C174.91 347.2 174.64 348.44 174.09 349.52C173.54 350.6 172.83 351.51 171.96 352.25C171.08 352.98 170.11 353.54 169.02 353.92C167.94 354.31 166.85 354.5 165.76 354.5C164.71 354.5 163.66 354.31 162.63 353.94C161.59 353.57 160.66 353.01 159.82 352.28C158.98 351.55 158.3 350.64 157.77 349.54C157.25 348.44 156.99 347.18 156.99 345.73L156.99 329.62L159.57 329.62ZM217.4 336.51C217.4 337.69 217.11 338.82 216.54 339.89C215.97 340.97 215.12 341.82 214.01 342.44C214.64 342.61 215.15 342.85 215.54 343.18C215.94 343.5 216.25 343.88 216.49 344.31C216.72 344.75 216.88 345.22 216.96 345.73C217.04 346.24 217.08 346.75 217.08 347.27L217.08 350.94C217.08 351.47 217.15 351.98 217.29 352.47C217.43 352.96 217.62 353.4 217.85 353.8L215.06 353.8C214.82 353.43 214.68 352.97 214.62 352.44C214.56 351.9 214.53 351.45 214.53 351.08L214.53 347.23C214.53 346.77 214.45 346.31 214.29 345.85C214.12 345.4 213.87 344.99 213.52 344.63C213.17 344.27 212.71 343.98 212.16 343.76C211.6 343.53 210.91 343.42 210.09 343.42L202.79 343.42L202.79 353.8L200.21 353.8L200.21 329.62L210.09 329.62C211.28 329.62 212.33 329.83 213.24 330.23C214.15 330.64 214.91 331.17 215.53 331.82C216.14 332.48 216.61 333.21 216.92 334.04C217.24 334.87 217.4 335.69 217.4 336.51ZM202.79 341.15L210.09 341.15C210.72 341.15 211.32 341.03 211.89 340.78C212.46 340.54 212.96 340.21 213.4 339.79C213.83 339.37 214.17 338.87 214.43 338.31C214.68 337.73 214.81 337.12 214.81 336.47C214.81 335.82 214.69 335.22 214.46 334.67C214.23 334.12 213.9 333.65 213.48 333.26C213.07 332.86 212.56 332.55 211.98 332.31C211.4 332.08 210.77 331.96 210.09 331.96L202.79 331.96L202.79 341.15ZM253.31 329.62L262.12 353.8L259.39 353.8L256.7 346.39L246.32 346.39L243.63 353.8L240.87 353.8L249.78 329.62L253.31 329.62ZM251.49 332L247.16 344.12L255.83 344.12L251.49 332ZM289.51 329.62L301.81 350.52L301.81 329.62L304.39 329.62L304.39 353.8L300.93 353.8L288.63 332.91L288.63 353.8L286.05 353.8L286.05 329.62L289.51 329.62ZM332.31 341.4C332.31 343.24 332.54 344.84 333.02 346.2C333.5 347.56 334.13 348.69 334.91 349.57C335.69 350.46 336.57 351.12 337.55 351.56C338.53 352.01 339.53 352.23 340.55 352.23C341.6 352.23 342.55 352.04 343.42 351.65C344.28 351.27 345.02 350.76 345.65 350.13C346.28 349.5 346.8 348.79 347.21 347.98C347.61 347.18 347.9 346.36 348.06 345.52L350.68 345.52C350.45 346.78 350.06 347.95 349.51 349.03C348.97 350.11 348.26 351.06 347.4 351.88C346.54 352.69 345.54 353.34 344.39 353.8C343.25 354.27 341.97 354.5 340.55 354.5C338.9 354.5 337.41 354.2 336.08 353.61C334.75 353.01 333.62 352.15 332.67 351.02C331.73 349.89 331 348.52 330.49 346.9C329.98 345.28 329.72 343.44 329.72 341.36C329.72 339.78 329.96 338.24 330.45 336.73C330.94 335.23 331.65 333.9 332.57 332.75C333.49 331.6 334.62 330.67 335.96 329.97C337.3 329.27 338.82 328.93 340.51 328.93C341.96 328.93 343.25 329.12 344.38 329.5C345.51 329.88 346.49 330.42 347.33 331.09C348.17 331.77 348.87 332.57 349.43 333.5C349.99 334.43 350.43 335.46 350.75 336.58L348.03 336.58C347.4 334.76 346.47 333.41 345.25 332.52C344.03 331.64 342.45 331.19 340.51 331.19C339.3 331.19 338.2 331.47 337.2 332.02C336.19 332.56 335.33 333.31 334.61 334.25C333.89 335.2 333.33 336.28 332.92 337.52C332.51 338.75 332.31 340.05 332.31 341.4ZM392.16 329.62L392.16 331.96L378.6 331.96L378.6 340.14L391.35 340.14L391.35 342.48L378.6 342.48L378.6 351.46L392.75 351.46L392.75 353.8L376.01 353.8L376.01 329.62L392.16 329.62Z" />
	</g>
</svg>